PathFileType	4	(X/Y/Z)	./resultDataOpenSim/trcMotMarkerGrf/sub06/qtm-14-03.trc
DataRate	CameraRate	NumFrames	NumMarkers	Units	OrigDataRate	OrigDataStartFrame	OrigNumFrames
250.000000	250.000000	11	24	m	250.000000	407	542
Frame#	Time	L.Toe.Tip			R.Toe.Tip			L.Ankle.Lat			R.Ankle.Lat			L.Ankle.Med			R.Ankle.Med			L.Heel			R.Heel			L.Knee.Lat			R.Knee.Lat			L.Knee.Med			R.Knee.Med			L.Thigh.Upper			R.Thigh.Upper			L.ASIS			R.ASIS			V.Sacral			L.Acromium			R.Acromium			C7			L.Elbow			R.Elbow			L.Wrist.Lat			R.Wrist.Lat
		X1	Y1	Z1	X2	Y2	Z2	X3	Y3	Z3	X4	Y4	Z4	X5	Y5	Z5	X6	Y6	Z6	X7	Y7	Z7	X8	Y8	Z8	X9	Y9	Z9	X10	Y10	Z10	X11	Y11	Z11	X12	Y12	Z12	X13	Y13	Z13	X14	Y14	Z14	X15	Y15	Z15	X16	Y16	Z16	X17	Y17	Z17	X18	Y18	Z18	X19	Y19	Z19	X20	Y20	Z20	X21	Y21	Z21	X22	Y22	Z22	X23	Y23	Z23	X24	Y24	Z24

407	1.624	1.5541222	0.12696971	-0.13653978	0.93247795	0.034927819	0.072964323	1.4264129	0.11211831	-0.15219087	0.80528685	0.083227486	0.097954153	1.4316195	0.12678477	-0.068221581	0.82803971	0.098001317	0.010553021	1.3732471	0.055704534	-0.10580638	0.74596039	0.072752378	0.040586019	1.3403286	0.47469477	-0.14257427	0.99384178	0.42769852	0.12136747	1.3219109	0.46010266	-0.021147949	0.96623279	0.42866161	-0.0066591981	1.1263949	0.80254198	-0.17108557	1.0670746	0.78649735	0.17562554	1.1853169	0.84922965	-0.11606924	1.1692577	0.84253909	0.13353603	0.99078237	0.91260437	0.0023475263	1.0940935	1.316264	-0.19409465	1.1238897	1.3186587	0.1683055	1.0281428	1.3557914	-0.0078707888	0.98536158	1.0205134	-0.2207512	1.166805	1.0006076	0.26311014	1.0440515	0.79752239	-0.29554382	1.4039216	1.0106352	0.18132513
408	1.628	1.5647257	0.12969319	-0.13720125	0.93254997	0.034924569	0.07302037	1.4372874	0.11234743	-0.15302743	0.8060388	0.084368684	0.098224344	1.4416429	0.12667397	-0.069024328	0.82883794	0.099009076	0.010873012	1.3849755	0.054700031	-0.10692308	0.74653171	0.074555897	0.040955949	1.3452078	0.47283039	-0.1424437	0.99762467	0.42730683	0.12120459	1.325647	0.45743048	-0.02088979	0.97045183	0.42823587	-0.0068708234	1.1326921	0.80131786	-0.17161188	1.0722463	0.78588225	0.17486902	1.1917946	0.8481459	-0.1165213	1.1747454	0.841644	0.13317477	0.99626376	0.91169474	0.0011929678	1.0994851	1.3152611	-0.19501364	1.1291402	1.3178913	0.16740579	1.0333574	1.3547833	-0.008824713	0.99035388	1.0197288	-0.22109354	1.1722469	0.99982208	0.26212914	1.0480188	0.7965838	-0.29631037	1.4092438	1.0095308	0.18009179
409	1.632	1.5746968	0.13211863	-0.13789747	0.93265271	0.034936814	0.073082979	1.4475985	0.11255011	-0.15385785	0.80686708	0.085580849	0.098540792	1.4507654	0.12640934	-0.069796032	0.82972511	0.10005862	0.011181303	1.3960015	0.053776822	-0.10804641	0.74714177	0.076451635	0.041390128	1.3501721	0.47109045	-0.14233622	1.0015263	0.42688801	0.12102332	1.3294093	0.45481205	-0.020626784	0.97478251	0.4277862	-0.0070706371	1.1390336	0.800123	-0.17216544	1.0772458	0.78520984	0.17420562	1.1982962	0.84711	-0.11698878	1.1802439	0.84076637	0.13275622	1.0018756	0.91078382	-5.4030453e-06	1.1049372	1.3142619	-0.19595693	1.1344002	1.31714	0.16650231	1.0386094	1.3537918	-0.00981787	0.99545006	1.0189362	-0.22146694	1.1776236	0.99903875	0.26113797	1.0521014	0.79564644	-0.29707856	1.4145133	1.0083275	0.17888157
410	1.636	1.5840105	0.13419837	-0.13860406	0.93278814	0.034964575	0.073155536	1.4573399	0.11268155	-0.15465917	0.80780215	0.086870889	0.098895214	1.4591083	0.12599545	-0.070520445	0.83067426	0.10115382	0.011494558	1.4063361	0.05289149	-0.10909946	0.74781911	0.078445303	0.041855635	1.3551928	0.46946738	-0.14225316	1.00562	0.42643599	0.12088946	1.3332423	0.45228242	-0.020367652	0.9792273	0.42731468	-0.0072585629	1.1454224	0.79896126	-0.17273762	1.0818835	0.78449027	0.1736867	1.2047747	0.84611299	-0.11745128	1.1857641	0.83990402	0.13230414	1.0077295	0.90987303	-0.0011240871	1.1104416	1.313274	-0.19692072	1.1396858	1.3163929	0.16558403	1.0439095	1.3528191	-0.010844766	1.0006434	1.0181346	-0.22187603	1.1829223	0.99824897	0.26014526	1.0563012	0.79471359	-0.29784926	1.4197355	1.0070264	0.17769188
411	1.64	1.5926861	0.13586292	-0.13928894	0.93294921	0.035000663	0.073236521	1.4664753	0.11269998	-0.15539385	0.80885383	0.088228466	0.099279672	1.4670202	0.1255072	-0.071170952	0.83167525	0.10230391	0.011828202	1.4159848	0.052017916	-0.1100434	0.74859501	0.080539763	0.042317578	1.3602462	0.46795969	-0.14218952	1.0099563	0.42594974	0.12085175	1.3371747	0.44989347	-0.020127333	0.98379292	0.426819	-0.0074474943	1.1518627	0.79783907	-0.17332714	1.0862297	0.78374756	0.17326971	1.21122	0.84514971	-0.11790584	1.1913193	0.83904965	0.13183628	1.0138627	0.90895322	-0.0020725362	1.1159925	1.3122981	-0.19790968	1.1450081	1.3156465	0.16464019	1.0492628	1.3518617	-0.011894541	1.0059214	1.0173243	-0.22232401	1.1881394	0.99744886	0.25915271	1.0606241	0.79378183	-0.29862126	1.424915	1.0056329	0.17652311
412	1.644	1.6007934	0.13706152	-0.13993009	0.93312193	0.035030493	0.073322488	1.4749854	0.11256697	-0.15603399	0.80997825	0.089640874	0.099687405	1.4747547	0.12498658	-0.07172659	0.83273846	0.10351533	0.012184462	1.4249584	0.05113231	-0.11086415	0.74948921	0.082731737	0.042748608	1.3653193	0.46655931	-0.14215033	1.0145148	0.42543545	0.12089003	1.3412431	0.44770103	-0.019918805	0.98848729	0.42629218	-0.0076449331	1.1583528	0.79676134	-0.17393736	1.0906651	0.78299227	0.17281788	1.2176449	0.84421678	-0.11835786	1.1969234	0.83820358	0.13136029	1.0201307	0.90801616	-0.0030650549	1.12159	1.3113298	-0.19892977	1.150361	1.3149077	0.16367379	1.0546632	1.350917	-0.01296485	1.0112822	1.016507	-0.2228159	1.1932858	0.99663889	0.25815162	1.0650752	0.79284724	-0.29939692	1.4300538	1.0041502	0.17537907
413	1.648	1.6083996	0.13778405	-0.14051718	0.93329801	0.035043914	0.073411969	1.4828977	0.11225055	-0.15657054	0.8111238	0.091100752	0.10011306	1.4822905	0.12439479	-0.072184177	0.83387451	0.10479418	0.012558152	1.4332753	0.050205944	-0.11155997	0.75050802	0.085016527	0.043130517	1.3704095	0.46524418	-0.14215177	1.0192474	0.42490335	0.12095264	1.3454875	0.4457458	-0.019753289	0.99331883	0.42572898	-0.0078440768	1.1648868	0.79573165	-0.17457213	1.095538	0.78222528	0.17222424	1.224064	0.84330888	-0.11881189	1.2025869	0.83737449	0.13087448	1.0263327	0.90706821	-0.0044027145	1.1272419	1.3103666	-0.19998038	1.1557358	1.3141817	0.16269859	1.0601016	1.3499859	-0.014060031	1.0167367	1.0156848	-0.22335541	1.1983772	0.99582129	0.25713116	1.069658	0.79190764	-0.30018081	1.4351534	1.0025724	0.17426161
414	1.652	1.6155356	0.13804214	-0.14104012	0.93348184	0.035044376	0.073502997	1.4902591	0.11172832	-0.1570039	0.81229289	0.092607668	0.10054766	1.4894885	0.12367168	-0.072551649	0.83509113	0.10614594	0.012940781	1.4409534	0.049209378	-0.11213246	0.75164	0.087400736	0.043473185	1.3755165	0.46398599	-0.14220726	1.02412	0.42436536	0.12099746	1.3499265	0.44404121	-0.019646686	0.99829721	0.42512907	-0.0080358721	1.1714599	0.79475679	-0.17523205	1.1008944	0.78144198	0.1714881	1.2304899	0.84241867	-0.11927429	1.2083143	0.83656721	0.13037529	1.0324918	0.90612248	-0.0059097847	1.1329613	1.3094096	-0.20105885	1.1611419	1.313463	0.16172055	1.0655747	1.3490666	-0.015181597	1.0222961	1.0148609	-0.22394201	1.2034258	0.99499988	0.25609088	1.0743742	0.79096287	-0.30097533	1.4402108	1.0008947	0.17316772
415	1.656	1.622208	0.13785093	-0.14148188	0.93368301	0.035043341	0.073589713	1.4970982	0.1109856	-0.15733477	0.81352841	0.094173957	0.10097126	1.4962607	0.1227854	-0.072835681	0.8363993	0.10757242	0.01332544	1.4480048	0.048120809	-0.11258068	0.7528525	0.089906399	0.043826999	1.380637	0.4627624	-0.14231745	1.0290993	0.42383302	0.1209865	1.3545572	0.44257242	-0.019614671	1.0034303	0.42449674	-0.008219259	1.1780684	0.79384526	-0.17591134	1.1066031	0.78063732	0.17066025	1.2369322	0.84154163	-0.11975136	1.2141077	0.83577724	0.12986365	1.038839	0.90518973	-0.0070504657	1.1387525	1.3084615	-0.20216636	1.1665985	1.3127429	0.16072783	1.0710827	1.3481544	-0.016328867	1.0279612	1.0140374	-0.22457566	1.2084382	0.99417803	0.25503972	1.0792253	0.79001684	-0.30178234	1.4452194	0.9991225	0.17209435
416	1.66	1.6284198	0.13722564	-0.14182102	0.93390498	0.035049261	0.073666855	1.5034203	0.11001102	-0.15756382	0.81485817	0.095819521	0.10136411	1.5025682	0.12172307	-0.073039927	0.83780999	0.10907274	0.013711705	1.4544407	0.046925499	-0.11289934	0.75411331	0.092555093	0.044247806	1.3857681	0.46156198	-0.14247411	1.0341544	0.4233108	0.12089682	1.3593581	0.44130437	-0.019665443	1.0087201	0.42383797	-0.0083964698	1.1847154	0.79300151	-0.17660449	1.1125587	0.77981166	0.16977514	1.2433985	0.84068189	-0.12024256	1.2199634	0.8349978	0.12934558	1.0455128	0.90427743	-0.0076670652	1.1446043	1.3075244	-0.2033043	1.1721095	1.31202	0.15970351	1.0766288	1.3472513	-0.017501044	1.0337241	1.0132125	-0.2252611	1.2134118	0.99335537	0.25398249	1.0842126	0.78907623	-0.30260315	1.4501776	0.99726535	0.17104598
417	1.664	1.6341761	0.13617953	-0.14203898	0.93414197	0.035062812	0.073736089	1.5092248	0.10879615	-0.15769715	0.81626912	0.097550759	0.10172555	1.508375	0.12047611	-0.073170108	0.83933088	0.11064461	0.014104717	1.4602779	0.045608627	-0.11308665	0.75542832	0.095347121	0.044741219	1.3909091	0.46038332	-0.14267044	1.0392787	0.42279115	0.12074106	1.364291	0.44019465	-0.019803971	1.014161	0.42315504	-0.0085657421	1.1914147	0.79222709	-0.17731651	1.118719	0.77896125	0.16884187	1.2498972	0.83984989	-0.12074369	1.225869	0.83422974	0.12882386	1.0524513	0.90338408	-0.0081580055	1.1505035	1.3065994	-0.20446828	1.1776588	1.3113009	0.15864202	1.0822234	1.3463652	-0.018694552	1.039576	1.0123831	-0.22600109	1.2183186	0.99253038	0.25291535	1.0893346	0.78814533	-0.30343528	1.4550906	0.99532646	0.17003481
